<svg xmlns="http://www.w3.org/2000/svg" width="27.422" height="34.094" viewBox="0 0 27.422 34.094">
  <path id="_006-pin" data-name="006-pin" d="M14.211,34.094l-.826-.775a67.38,67.38,0,0,1-5.935-6.535C3.385,21.675,1.085,17.194.616,13.467A10.343,10.343,0,0,1,.5,11.984C.5,5.376,6.651,0,14.211,0S27.92,5.375,27.922,11.982a10.419,10.419,0,0,1-.113,1.464c-.459,3.728-2.755,8.213-6.827,13.329a67.381,67.381,0,0,1-5.945,6.544Zm0-32.121C7.9,1.972,2.757,6.464,2.757,11.985a8.631,8.631,0,0,0,.1,1.243l0,.017c.856,6.841,8.753,15.3,11.354,17.918,2.6-2.624,10.519-11.093,11.355-17.935l0-.017a8.652,8.652,0,0,0,.1-1.229c0-5.519-5.141-10.01-11.455-10.01Zm0,18.073c-5.085,0-9.222-3.616-9.222-8.061s4.137-8.061,9.222-8.061,9.22,3.616,9.22,8.061-4.136,8.061-9.22,8.061Zm0-14.149c-3.841,0-6.965,2.731-6.965,6.088s3.125,6.088,6.965,6.088,6.963-2.731,6.963-6.088S18.051,5.9,14.211,5.9Zm0,0" transform="translate(-0.5)" fill="#efefef"/>
</svg>
