<svg xmlns="http://www.w3.org/2000/svg" width="33.01" height="40" viewBox="0 0 33.01 40">
  <path id="_013-facebook" data-name="013-facebook" d="M20.89,40H11.576c-1.556,0-2.821-.87-2.821-1.94V23.611H3.321C1.766,23.611.5,22.74.5,21.671V15.48c0-1.07,1.265-1.94,2.821-1.94H8.755v-3.1a8.99,8.99,0,0,1,4.058-7.563C15.48.994,19.207,0,23.59,0l7.1.008c1.553,0,2.816.872,2.816,1.94V7.7c0,1.07-1.265,1.94-2.82,1.94H25.907c-1.458,0-1.83.2-1.909.263-.131.1-.287.391-.287,1.189v2.449H30.33a3.937,3.937,0,0,1,1.4.244,1.975,1.975,0,0,1,1.451,1.7l0,6.191c0,1.069-1.265,1.94-2.821,1.94H23.711V38.059c0,1.07-1.266,1.94-2.822,1.94Zm-8.725-2.345H20.3V22.561c0-.714.845-1.3,1.884-1.3h7.58l0-5.381H22.184c-1.038,0-1.883-.581-1.883-1.3v-3.5a3.172,3.172,0,0,1,1.141-2.741c1.215-.947,3.13-1.056,4.464-1.056H30.1V2.352l-6.512-.007c-7.045,0-11.423,3.1-11.423,8.094v4.15c0,.714-.845,1.3-1.883,1.3H3.91v5.381h6.372c1.038,0,1.883.581,1.883,1.3Zm18.522-35.3h0Zm0,0" transform="translate(-0.5 0)" fill="#efefef"/>
</svg>
