<svg xmlns="http://www.w3.org/2000/svg" width="40" height="40" viewBox="0 0 40 40">
  <g id="_014-instagram" data-name="014-instagram" transform="translate(-23.999 -90)">
    <g id="그룹_3" data-name="그룹 3" transform="translate(23.999 90)">
      <g id="그룹_5" data-name="그룹 5">
        <path id="패스_9" data-name="패스 9" d="M29.171,0H10.827A10.84,10.84,0,0,0,0,10.828V29.173A10.84,10.84,0,0,0,10.827,40H29.172A10.84,10.84,0,0,0,40,29.173V10.828A10.84,10.84,0,0,0,29.171,0Zm8.483,29.173a8.492,8.492,0,0,1-8.483,8.482H10.827a8.492,8.492,0,0,1-8.483-8.482V10.828a8.492,8.492,0,0,1,8.483-8.483H29.172a8.492,8.492,0,0,1,8.482,8.483Zm0,0" transform="translate(0.001)" fill="#efefef"/>
        <path id="패스_10" data-name="패스 10" d="M126.825,116a10.821,10.821,0,1,0,10.821,10.821A10.833,10.833,0,0,0,126.825,116Zm0,19.321a8.5,8.5,0,1,1,8.5-8.5A8.51,8.51,0,0,1,126.825,135.325Zm0,0" transform="translate(-106.824 -106.825)" fill="#efefef"/>
        <path id="패스_11" data-name="패스 11" d="M361.25,66.285a3.274,3.274,0,1,0,3.274,3.273A3.277,3.277,0,0,0,361.25,66.285Zm0,4.172a.9.9,0,1,1,.9-.9A.9.9,0,0,1,361.25,70.457Zm0,0" transform="translate(-330.165 -61.04)" fill="#efefef"/>
      </g>
    </g>
  </g>
</svg>
