<svg xmlns="http://www.w3.org/2000/svg" width="40" height="30" viewBox="0 0 40 30">
  <g id="_018-youtube" data-name="018-youtube" transform="translate(552.001 -394.399)">
    <g id="그룹_4" data-name="그룹 4" transform="translate(-552.001 394.399)">
      <path id="패스_12" data-name="패스 12" d="M202.223,111.577l-8.867-4.851a1.628,1.628,0,0,0-2.41,1.429v9.62a1.626,1.626,0,0,0,2.4,1.434l8.867-4.768a1.629,1.629,0,0,0,.01-2.863Zm-8.925,4.987v-7.19L199.925,113Zm0,0" transform="translate(-176.05 -98.363)" fill="#efefef"/>
      <path id="패스_13" data-name="패스 13" d="M39.7,7.08l0-.018c-.034-.319-.371-3.155-1.763-4.6a6.539,6.539,0,0,0-4.311-2l-.2-.024L33.36.433C28.072.052,20.086,0,20.006,0h-.014c-.08,0-8.066.052-13.4.433L6.52.441,6.332.463A6.373,6.373,0,0,0,2.047,2.526C.721,3.953.337,6.728.3,7.04l0,.04C.281,7.213,0,10.371,0,13.542v2.964c0,3.171.282,6.329.294,6.462l0,.02c.034.314.371,3.1,1.757,4.54A6.675,6.675,0,0,0,6.507,29.5c.163.018.3.034.4.051L7,29.564c3.053.288,12.626.429,13.032.435h.024c.08,0,8.066-.052,13.354-.433l.07-.007c.067-.009.142-.017.224-.025a6.226,6.226,0,0,0,4.249-2.013c1.326-1.427,1.71-4.2,1.749-4.514l0-.04c.012-.133.294-3.291.294-6.461V13.542c0-3.171-.283-6.328-.294-6.461Zm-2.05,9.425c0,2.935-.259,5.957-.283,6.234a7.323,7.323,0,0,1-1.15,3.215,3.873,3.873,0,0,1-2.766,1.271l-.25.028c-5.115.366-12.8.422-13.153.425-.4-.006-9.83-.149-12.79-.421-.152-.024-.316-.043-.488-.063a4.406,4.406,0,0,1-3-1.24l-.022-.023a6.644,6.644,0,0,1-1.127-3.183c-.019-.21-.284-3.268-.284-6.243V13.542c0-2.931.258-5.95.283-6.233a7.174,7.174,0,0,1,1.15-3.216A4.062,4.062,0,0,1,6.6,2.769l.191-.023C11.982,2.378,19.721,2.323,20,2.321s8.015.057,13.158.425l.206.024a4.217,4.217,0,0,1,2.871,1.288l.009.01A6.75,6.75,0,0,1,37.371,7.3c.018.2.284,3.262.284,6.244Zm0,0" transform="translate(0.001 0)" fill="#efefef"/>
    </g>
  </g>
</svg>
