<svg xmlns="http://www.w3.org/2000/svg" width="37.269" height="37.269" viewBox="0 0 37.269 37.269">
  <g id="_027-whatsapp" data-name="027-whatsapp" transform="translate(-4.148 -474.731)">
    <g id="그룹_6" data-name="그룹 6">
      <g id="그룹_7" data-name="그룹 7">
        <g id="그룹_8" data-name="그룹 8" transform="translate(0 61.76)">
          <path id="패스_14" data-name="패스 14" d="M31.976,5.294A17.953,17.953,0,0,0,19.2,0h0A18.077,18.077,0,0,0,3.133,26.362L.1,35.041A1.676,1.676,0,0,0,1.67,37.269a1.688,1.688,0,0,0,.558-.1l8.679-3.038A18.074,18.074,0,0,0,31.976,5.294ZM30.43,29.308a15.893,15.893,0,0,1-18.692,2.8,1.683,1.683,0,0,0-1.343-.1L2.51,34.759l2.76-7.885a1.684,1.684,0,0,0-.1-1.343A15.889,15.889,0,0,1,19.194,2.186h0A15.888,15.888,0,0,1,30.43,29.308Zm0,0" transform="translate(4.148 412.97)" fill="#efefef"/>
          <path id="패스_15" data-name="패스 15" d="M143.99,125.191a2.135,2.135,0,0,0-3.016,0l-.909.909a13.236,13.236,0,0,1-5.316-5.315l.909-.909a2.134,2.134,0,0,0,0-3.016l-2.45-2.45a2.135,2.135,0,0,0-3.016,0l-1.96,1.96c-1.123,1.123-1.179,3.053-.158,5.436a23.859,23.859,0,0,0,10.97,10.97,7.913,7.913,0,0,0,3.051.727,3.25,3.25,0,0,0,2.384-.885l1.96-1.961h0a2.132,2.132,0,0,0,0-3.016Zm-1.055,5.881c-.32.32-1.306.433-3.029-.305a21.731,21.731,0,0,1-9.822-9.822c-.738-1.723-.626-2.709-.306-3.029l1.923-1.923,2.375,2.375-1.138,1.139a1.668,1.668,0,0,0-.309,1.942,15.421,15.421,0,0,0,6.773,6.773,1.668,1.668,0,0,0,1.943-.309l1.138-1.138,2.375,2.375Zm0,0" transform="translate(-113.93 307.468)" fill="#efefef"/>
        </g>
      </g>
    </g>
  </g>
</svg>
