<svg xmlns="http://www.w3.org/2000/svg" width="32.324" height="21.757" viewBox="0 0 32.324 21.757">
  <path id="_043-email" data-name="043-email" d="M31.221,0H1.1A1.167,1.167,0,0,0,0,1.22V20.537a1.167,1.167,0,0,0,1.1,1.22H31.221a1.167,1.167,0,0,0,1.1-1.22V1.22A1.167,1.167,0,0,0,31.221,0ZM1.9,3.006l9.06,6.665L1.9,18.4Zm14.266,7.974L4.087,2.1h24.15Zm-3.568-.106,2.958,2.176a1.012,1.012,0,0,0,1.221,0l2.958-2.176,9.116,8.783H3.477Zm8.774-1.2,9.06-6.665V18.4Zm0,0" transform="translate(0)" fill="#efefef"/>
</svg>
